<svg xmlns="http://www.w3.org/2000/svg" width="396" height="512" viewBox="0 0 396 512">
  <path id="blood-drop" d="M177,388V338H127a20,20,0,0,1,0-40h50V248a20,20,0,0,1,40,0v50h50a20,20,0,0,1,0,40H217v50a20,20,0,0,1-40,0ZM303.094,117.062C258.481,56.589,214.6,8.515,212.754,6.5a20,20,0,0,0-29.508,0c-1.848,2.02-45.727,50.1-90.34,110.566C31.258,200.625,0,264.882,0,308.058v5.469C0,422.965,88.821,512,198,512a197.754,197.754,0,0,0,96.809-25.3,20,20,0,1,0-19.617-34.859A157.667,157.667,0,0,1,198,472c-87.121,0-158-71.09-158-158.477v-5.465c0-33.43,30.148-92.73,84.895-166.977,28.1-38.109,56.484-71.793,73.109-90.918,16.57,19.066,44.836,52.605,72.9,90.648C325.778,215.186,356,274.584,356,308.057v5.469a157.046,157.046,0,0,1-17.844,73.238,20,20,0,1,0,35.48,18.473A199.416,199.416,0,0,0,396,313.522v-5.465c0-43.176-31.258-107.434-92.906-191Zm0,0" transform="translate(0 0)" fill="#8c54ff"/>
</svg>
