<svg xmlns="http://www.w3.org/2000/svg" width="512" height="512" viewBox="0 0 512 512">
  <path id="gearbox" d="M445,0a67,67,0,0,0-20,130.949V196a40.047,40.047,0,0,1-40,40H278V116c0-.34-.035-.668-.051-1,.016-.332.051-.66.051-1a20,20,0,0,0-20-20,27,27,0,1,1,27-27,20,20,0,0,0,40,0,67,67,0,1,0-87,63.949V236H87V116c0-.34-.035-.668-.051-1,.016-.332.051-.66.051-1A20,20,0,0,0,67,94,27,27,0,1,1,94,67a20,20,0,0,0,40,0,67,67,0,1,0-87,63.949v250.1A67,67,0,0,0,67,512a20,20,0,0,0,0-40,27,27,0,0,1-3.645-53.746,19.277,19.277,0,0,0,7.289,0A27.035,27.035,0,0,1,94,445a20,20,0,1,0,40,0,67.122,67.122,0,0,0-47-63.949V276H238V381.051A67,67,0,0,0,258,512a20,20,0,0,0,0-40,27,27,0,0,1-3.645-53.746,19.277,19.277,0,0,0,7.289,0A27.035,27.035,0,0,1,285,445a20,20,0,0,0,40,0,67.122,67.122,0,0,0-47-63.949V276H385a80.089,80.089,0,0,0,80-80V114a20,20,0,0,0-20-20,27,27,0,1,1,27-27,20,20,0,0,0,40,0A67.074,67.074,0,0,0,445,0Zm0,0" fill="#8c54ff"/>
</svg>
