<svg xmlns="http://www.w3.org/2000/svg" width="512" height="412" viewBox="0 0 512 412">
  <path id="sustainable-energy" d="M508.383,351.29,413.971,459.3a9.9,9.9,0,0,1-6.761,2.7c-3.5.014-6.225-1.854-6.21-5a6.1,6.1,0,0,1,.613-2.509L428.488,380H388.311c-15.474,0-25.248-16.409-17.719-29.833L416.675,268h70.987l-36.6,59h46.317c12.58,0,19.2,14.814,11,24.29ZM340,316a20,20,0,0,1-20,20H191.56a59.988,59.988,0,0,1-113.12,0H60A60.068,60.068,0,0,1,0,276V217.892a143.249,143.249,0,0,1,12.336-58.351l31.389-80.59C50.727,59.943,74.253,50,94,50H244.822c12.524,0,25.4,4.539,36.267,12.781.507.385,110.57,101.758,110.57,101.758l67.312,25.029a20,20,0,1,1-13.94,37.492l-56.788-22.146H40.808A104.956,104.956,0,0,0,40,217.892V276a20.023,20.023,0,0,0,20,20H78.44a59.988,59.988,0,0,1,113.12,0H320A20,20,0,0,1,340,316ZM178,164.914H333.036L256.244,94.156A20.251,20.251,0,0,0,244.822,90H178Zm-124.83,0H138V90H94c-5.819,0-11.359,2.376-13.149,3.845ZM155,316a20,20,0,1,0-20,20A20.023,20.023,0,0,0,155,316Z" transform="translate(0 -50)" fill="#8c54ff"/>
</svg>