<svg xmlns="http://www.w3.org/2000/svg" width="512.002" height="512" viewBox="0 0 512.002 512">
  <path id="wheel" d="M437.461,75.426A254.323,254.323,0,0,0,256.625,0h-.645A256,256,0,0,0,74.539,436.578,254.329,254.329,0,0,0,255.375,512H256a255.593,255.593,0,0,0,131.922-36.57,20,20,0,1,0-20.641-34.262,214.686,214.686,0,0,1-51.242,22.348c.074-12.992.254-24.8.547-35.789a82.021,82.021,0,0,1,111.9-74.2c5.453,2.141,10.945,4.383,16.434,6.7q-4.553,8.221-9.844,16.1a20,20,0,0,0,33.2,22.313A255.363,255.363,0,0,0,437.461,75.426Zm-333.82,27.465A214.556,214.556,0,0,1,255.985,40h.543A216.06,216.06,0,0,1,470.485,230.231c-80.059-6.5-137.742-46.879-148.883-55.223a84.9,84.9,0,0,0-131.227.031c-11.074,8.355-68.352,48.711-148.852,55.2A214.383,214.383,0,0,1,103.641,102.89Zm115.773,99.957a19.794,19.794,0,0,0,2.469-3.141,44.907,44.907,0,0,1,68.234,0,19.842,19.842,0,0,0,2.469,3.141,45,45,0,1,1-73.172,0ZM66.781,360.348q8.385-3.539,16.73-6.824a82.024,82.024,0,0,1,111.9,74.2c.293,11,.473,22.832.547,35.848a214.78,214.78,0,0,1-93.066-55.215,216.942,216.942,0,0,1-36.109-48.012Zm376.313-44.059a120.451,120.451,0,0,0-58.926-7.652,122.857,122.857,0,0,0-91.641,60.75A120.526,120.526,0,0,0,276.6,426.668c-.355,13.43-.551,28.012-.594,44.4q-9.943.92-20,.93h-.531c-6.543-.016-13.043-.336-19.48-.926-.043-16.391-.238-30.977-.594-44.406a120.525,120.525,0,0,0-15.926-57.281,122.839,122.839,0,0,0-91.641-60.75,120.451,120.451,0,0,0-58.926,7.652c-6.016,2.359-12.078,4.844-18.137,7.4A215.523,215.523,0,0,1,40.48,270.418c54.41-3.629,99.543-20.812,130.656-36.746a84.993,84.993,0,0,0,169.73,0C371.976,249.6,417.1,266.789,471.5,270.418a213.557,213.557,0,0,1-10.477,53.188c-5.988-2.531-11.984-4.984-17.934-7.316Zm0,0" transform="translate(0.001)" fill="#8c54ff"/>
</svg>